<?xml version="1.0" standalone="no"?>
<!DOCTYPE svg PUBLIC "-//W3C//DTD SVG 20010904//EN"
 "http://www.w3.org/TR/2001/REC-SVG-20010904/DTD/svg10.dtd">
<svg version="1.0" xmlns="http://www.w3.org/2000/svg"
 width="500.000000pt" height="500.000000pt" viewBox="0 0 500.000000 500.000000"
 preserveAspectRatio="xMidYMid meet">
<metadata>
Created by potrace 1.11, written by Peter Selinger 2001-2013
</metadata>
<g transform="translate(0.000000,500.000000) scale(0.100000,-0.100000)"
fill="#000000" stroke="none">
<path d="M0 2500 l0 -2500 2500 0 2500 0 0 2500 0 2500 -2500 0 -2500 0 0
-2500z m1720 1026 c47 -8 139 -28 205 -45 157 -41 202 -41 240 -1 16 17 34 30
41 30 16 0 22 -78 30 -387 l7 -263 -24 0 c-20 0 -36 19 -88 105 -142 230 -302
406 -422 463 -168 80 -386 58 -514 -51 -97 -83 -129 -252 -71 -366 23 -44 99
-107 173 -144 90 -44 155 -67 352 -122 326 -91 455 -156 583 -292 54 -59 87
-120 120 -223 20 -65 23 -95 23 -230 0 -130 -4 -168 -23 -233 -71 -249 -245
-422 -498 -498 -88 -27 -302 -36 -440 -20 -55 6 -186 28 -291 47 -106 20 -204
33 -218 30 -15 -4 -34 -22 -47 -46 -16 -28 -30 -40 -45 -40 -13 0 -23 1 -23 3
-4 47 -30 668 -30 705 0 49 2 52 25 52 18 0 30 -11 51 -47 94 -167 208 -317
328 -431 150 -142 272 -202 429 -210 200 -10 351 58 414 186 25 50 28 68 28
152 0 112 -22 168 -92 237 -57 55 -215 131 -368 178 -361 110 -447 147 -573
241 -157 119 -232 292 -232 538 0 221 87 407 254 540 96 76 213 125 356 149
60 10 262 6 340 -7z m2524 -38 c3 -13 10 -147 16 -298 6 -151 12 -291 13 -310
2 -32 0 -35 -26 -35 -27 0 -31 6 -62 86 -142 367 -298 486 -665 505 l-130 7 0
-523 0 -522 118 4 c101 3 125 7 174 30 32 15 78 48 103 74 51 52 118 180 136
262 11 44 16 52 36 52 l23 0 0 -476 0 -475 -26 3 c-24 3 -29 11 -51 88 -49
173 -114 271 -210 320 -42 22 -64 25 -175 28 l-128 4 0 -486 0 -486 200 0 200
0 0 -35 0 -35 -605 0 -605 0 0 35 0 35 95 0 95 0 0 1050 0 1050 -95 0 -95 0 0
35 0 35 830 0 830 0 4 -22z"/>
</g>
</svg>
